<svg width="32" height="32" viewBox="0 0 32 32" fill="none" xmlns="http://www.w3.org/2000/svg">
<path opacity="0.2" d="M16 32C24.8366 32 32 24.8366 32 16C32 7.16344 24.8366 0 16 0C7.16344 0 0 7.16344 0 16C0 24.8366 7.16344 32 16 32Z" fill="#F3BA2F"/>
<path fill-rule="evenodd" clip-rule="evenodd" d="M12.655 14.6248L16.0016 11.2796L19.3496 14.6275L21.2958 12.68L16.0016 7.38462L10.7075 12.6786L12.655 14.6248ZM7.38461 16.0003L9.33146 14.0535L11.2783 16.0003L9.33146 17.9471L7.38461 16.0003ZM16.0016 20.7218L12.655 17.3752L10.7047 19.32L10.7075 19.3227L16.0016 24.6154L21.2958 19.32L21.2972 19.3186L19.3496 17.3739L16.0016 20.7218ZM20.7217 16.0008L22.6685 14.054L24.6154 16.0008L22.6685 17.9476L20.7217 16.0008ZM16.0016 14.0232L17.9764 15.9993H17.9778L17.9764 16.0007L16.0016 17.9768L14.0269 16.0034L14.0241 15.9993L14.0269 15.9966L14.3726 15.6509L14.5413 15.4835L16.0016 14.0232Z" fill="#F3BA2F"/>
</svg>
