<svg width="20" height="20" viewBox="0 0 20 20" fill="none" xmlns="http://www.w3.org/2000/svg">
<path d="M18.9362 16.4422C18.914 16.3629 18.8658 16.2934 18.7992 16.2448C18.7327 16.1962 18.6518 16.1715 18.5695 16.1745H3.90042C3.80316 16.1745 3.70988 16.2132 3.6411 16.2819C3.57233 16.3507 3.53369 16.444 3.53369 16.5413C3.53369 16.6385 3.57233 16.7318 3.6411 16.8006C3.70988 16.8694 3.80316 16.908 3.90042 16.908H14.1688C14.3277 16.9081 14.4832 16.9534 14.6173 17.0388C14.7513 17.1241 14.8583 17.2458 14.9256 17.3898C14.993 17.5337 15.0179 17.6938 14.9975 17.8514C14.9771 18.009 14.9123 18.1575 14.8105 18.2795L14.6198 18.5069C14.5752 18.5605 14.5468 18.6257 14.5379 18.6949C14.529 18.7641 14.54 18.8343 14.5697 18.8975C14.5993 18.9606 14.6463 19.014 14.7052 19.0513C14.7641 19.0887 14.8325 19.1085 14.9022 19.1083C14.968 19.1083 15.0326 19.0906 15.0892 19.057L18.7565 16.8566C18.8284 16.8175 18.8852 16.7555 18.9177 16.6804C18.9503 16.6053 18.9568 16.5215 18.9362 16.4422Z" fill="#5D77A2"/>
<path d="M5.38208 3.33911H15.6504C15.7477 3.33911 15.841 3.30048 15.9097 3.2317C15.9785 3.16293 16.0171 3.06965 16.0171 2.97239C16.0171 2.87513 15.9785 2.78185 15.9097 2.71307C15.841 2.6443 15.7477 2.60566 15.6504 2.60566H5.38208C5.22318 2.60558 5.0676 2.56021 4.93355 2.47489C4.7995 2.38957 4.69254 2.26781 4.6252 2.12389C4.55786 1.97997 4.53292 1.81984 4.5533 1.66225C4.57369 1.50467 4.63856 1.35615 4.74031 1.2341L4.93101 1.00673C4.98659 0.940275 5.01686 0.856281 5.01643 0.76964C5.016 0.683 4.98491 0.599309 4.92867 0.533402C4.87243 0.467495 4.79467 0.423629 4.70918 0.409579C4.62368 0.395529 4.53597 0.412203 4.4616 0.456644L0.794334 2.657C0.725237 2.698 0.671517 2.76056 0.64143 2.83506C0.611343 2.90956 0.606554 2.99188 0.6278 3.06936C0.649046 3.14685 0.695151 3.21521 0.759028 3.26395C0.822905 3.31268 0.901019 3.33909 0.981365 3.33911H5.38208Z" fill="#5D77A2"/>
<path d="M4.90535 6.40863C4.61357 6.40863 4.33373 6.52454 4.12741 6.73087C3.92109 6.93719 3.80518 7.21702 3.80518 7.50881V13.3764C3.80518 13.6682 3.92109 13.948 4.12741 14.1544C4.33373 14.3607 4.61357 14.4766 4.90535 14.4766H15.9071C16.1989 14.4766 16.4788 14.3607 16.6851 14.1544C16.8914 13.948 17.0073 13.6682 17.0073 13.3764V7.50881C17.0073 7.21702 16.8914 6.93719 16.6851 6.73087C16.4788 6.52454 16.1989 6.40863 15.9071 6.40863H4.90535ZM16.2739 8.60899V12.2763C16.2739 12.3735 16.2352 12.4668 16.1665 12.5356C16.0977 12.6043 16.0044 12.643 15.9071 12.643C15.7126 12.643 15.5261 12.7203 15.3885 12.8578C15.251 12.9953 15.1737 13.1819 15.1737 13.3764C15.1737 13.4737 15.1351 13.567 15.0663 13.6357C14.9975 13.7045 14.9042 13.7432 14.807 13.7432H6.00553C5.90827 13.7432 5.81499 13.7045 5.74622 13.6357C5.67744 13.567 5.63881 13.4737 5.63881 13.3764C5.63881 13.1819 5.56153 12.9953 5.42398 12.8578C5.28644 12.7203 5.09988 12.643 4.90535 12.643C4.80809 12.643 4.71481 12.6043 4.64604 12.5356C4.57727 12.4668 4.53863 12.3735 4.53863 12.2763V8.60899C4.53863 8.51173 4.57727 8.41845 4.64604 8.34967C4.71481 8.2809 4.80809 8.24226 4.90535 8.24226C5.09988 8.24226 5.28644 8.16499 5.42398 8.02744C5.56153 7.88989 5.63881 7.70333 5.63881 7.50881C5.63881 7.41155 5.67744 7.31827 5.74622 7.24949C5.81499 7.18072 5.90827 7.14208 6.00553 7.14208H14.807C14.9042 7.14208 14.9975 7.18072 15.0663 7.24949C15.1351 7.31827 15.1737 7.41155 15.1737 7.50881C15.1737 7.70333 15.251 7.88989 15.3885 8.02744C15.5261 8.16499 15.7126 8.24226 15.9071 8.24226C16.0044 8.24226 16.0977 8.2809 16.1665 8.34967C16.2352 8.41845 16.2739 8.51173 16.2739 8.60899Z" fill="#5D77A2"/>
<path d="M14.4878 7.87552H6.32448C6.25889 8.1289 6.12671 8.36011 5.94164 8.54518C5.75657 8.73025 5.52535 8.86244 5.27197 8.92802V11.9572C5.52535 12.0228 5.75657 12.155 5.94164 12.34C6.12671 12.5251 6.25889 12.7563 6.32448 13.0097H14.4878C14.5534 12.7563 14.6856 12.5251 14.8706 12.34C15.0557 12.155 15.2869 12.0228 15.5403 11.9572V8.92802C15.2869 8.86244 15.0557 8.73025 14.8706 8.54518C14.6856 8.36011 14.5534 8.1289 14.4878 7.87552ZM7.1056 11.1761C6.96054 11.1761 6.81874 11.133 6.69812 11.0524C6.5775 10.9719 6.4835 10.8573 6.42798 10.7233C6.37247 10.5893 6.35794 10.4418 6.38624 10.2995C6.41455 10.1572 6.4844 10.0265 6.58698 9.92397C6.68955 9.8214 6.82024 9.75154 6.96252 9.72324C7.10479 9.69494 7.25226 9.70947 7.38629 9.76498C7.52031 9.82049 7.63486 9.9145 7.71545 10.0351C7.79604 10.1557 7.83906 10.2975 7.83906 10.4426C7.83906 10.6371 7.76178 10.8237 7.62423 10.9612C7.48668 11.0988 7.30013 11.1761 7.1056 11.1761ZM10.4061 12.2762C10.0435 12.2762 9.68897 12.1687 9.38743 11.9672C9.08589 11.7657 8.85087 11.4794 8.71209 11.1443C8.5733 10.8093 8.53699 10.4406 8.60774 10.0849C8.67849 9.72919 8.85313 9.40247 9.10957 9.14603C9.36601 8.88959 9.69273 8.71496 10.0484 8.6442C10.4041 8.57345 10.7728 8.60977 11.1078 8.74855C11.4429 8.88733 11.7293 9.12235 11.9308 9.42389C12.1322 9.72543 12.2398 10.0799 12.2398 10.4426C12.2398 10.9289 12.0466 11.3953 11.7027 11.7392C11.3588 12.083 10.8925 12.2762 10.4061 12.2762Z" fill="#5D77A2"/>
<path d="M10.4063 11.5428C11.0139 11.5428 11.5065 11.0502 11.5065 10.4426C11.5065 9.835 11.0139 9.34244 10.4063 9.34244C9.79872 9.34244 9.30615 9.835 9.30615 10.4426C9.30615 11.0502 9.79872 11.5428 10.4063 11.5428Z" fill="#5D77A2"/>
<path d="M4.90546 5.67516H15.4782C15.4023 5.46057 15.2618 5.27479 15.0759 5.14343C14.89 5.01207 14.668 4.94159 14.4403 4.94171H3.43856C3.14677 4.94171 2.86694 5.05762 2.66061 5.26395C2.45429 5.47027 2.33838 5.7501 2.33838 6.04189V11.9095C2.33826 12.1371 2.40874 12.3592 2.5401 12.545C2.67146 12.7309 2.85724 12.8715 3.07183 12.9473V7.5088C3.07183 7.02249 3.26502 6.5561 3.60889 6.21222C3.95276 5.86835 4.41915 5.67516 4.90546 5.67516Z" fill="#5D77A2"/>
</svg>
