<svg width="64" height="64" viewBox="0 0 64 64" fill="none" xmlns="http://www.w3.org/2000/svg">
<path d="M0 32C0 5.648 5.648 0 32 0C58.352 0 64 5.648 64 32C64 58.352 58.352 64 32 64C5.648 64 0 58.352 0 32Z" fill="#313036" fill-opacity="0.3"/>
<path d="M0 32C0 5.648 5.648 0 32 0C58.352 0 64 5.648 64 32C64 58.352 58.352 64 32 64C5.648 64 0 58.352 0 32Z" fill="url(#paint0_linear_1742_3696)"/>
<path d="M1 32C1 25.4348 1.35308 20.2274 2.27043 16.0997C3.18526 11.9833 4.6479 9.00231 6.82511 6.82511C9.00231 4.6479 11.9833 3.18526 16.0997 2.27043C20.2274 1.35308 25.4348 1 32 1C38.5652 1 43.7726 1.35308 47.9003 2.27043C52.0167 3.18526 54.9977 4.6479 57.1749 6.82511C59.3521 9.00231 60.8147 11.9833 61.7296 16.0997C62.6469 20.2274 63 25.4348 63 32C63 38.5652 62.6469 43.7726 61.7296 47.9003C60.8147 52.0167 59.3521 54.9977 57.1749 57.1749C54.9977 59.3521 52.0167 60.8147 47.9003 61.7296C43.7726 62.6469 38.5652 63 32 63C25.4348 63 20.2274 62.6469 16.0997 61.7296C11.9833 60.8147 9.00231 59.3521 6.82511 57.1749C4.6479 54.9977 3.18526 52.0167 2.27043 47.9003C1.35308 43.7726 1 38.5652 1 32Z" stroke="#9EAEC7" stroke-opacity="0.1" stroke-width="2"/>
<path d="M32 18.6668C39.3733 18.6668 45.3333 24.6401 45.3333 32.0001C45.3333 39.3735 39.3733 45.3335 32 45.3335C24.64 45.3335 18.6667 39.3735 18.6667 32.0001C18.6667 24.6401 24.64 18.6668 32 18.6668ZM31.5333 25.2401C30.9867 25.2401 30.5333 25.6801 30.5333 26.2401V32.9735C30.5333 33.3201 30.72 33.6401 31.0267 33.8268L36.2533 36.9468C36.4133 37.0401 36.5867 37.0935 36.7733 37.0935C37.1067 37.0935 37.44 36.9201 37.6267 36.6001C37.9067 36.1335 37.76 35.5201 37.28 35.2268L32.5333 32.4001V26.2401C32.5333 25.6801 32.08 25.2401 31.5333 25.2401Z" fill="url(#paint1_linear_1742_3696)"/>
<defs>
<linearGradient id="paint0_linear_1742_3696" x1="32" y1="0" x2="32" y2="64" gradientUnits="userSpaceOnUse">
<stop stop-color="#797583" stop-opacity="0.2"/>
<stop offset="1" stop-color="#363567" stop-opacity="0.2"/>
</linearGradient>
<linearGradient id="paint1_linear_1742_3696" x1="34.4413" y1="12.2818" x2="33.8779" y2="50.0283" gradientUnits="userSpaceOnUse">
<stop stop-color="#6FF7E8"/>
<stop offset="0.520833" stop-color="#58EEFF"/>
<stop offset="0.859375" stop-color="#32C4C0"/>
</linearGradient>
</defs>
</svg>
