<svg width="32" height="32" viewBox="0 0 32 32" fill="none" xmlns="http://www.w3.org/2000/svg">
<path opacity="0.2" d="M31.9132 16.0003C31.9132 24.7904 24.7876 31.9161 15.9977 31.9161C7.20763 31.9161 0.0819702 24.7904 0.0819702 16.0003C0.0819702 7.21037 7.20763 0.0847168 15.9977 0.0847168C24.7875 0.0847168 31.9132 7.21037 31.9132 16.0003" fill="#505050"/>
<g opacity="0.8">
<path d="M15.9468 8.61548L15.8485 8.94961V18.6454L15.9468 18.7435L20.4474 16.0832L15.9468 8.61548Z" fill="white"/>
<path d="M15.9468 8.61548L11.4462 16.0832L15.9468 18.7435V14.0375V8.61548Z" fill="white"/>
<path d="M15.9468 20.2078L15.8914 20.2754V23.7292L15.9468 23.891L20.4502 17.5488L15.9468 20.2078Z" fill="white"/>
<path d="M15.9468 23.891V20.2078L11.4462 17.5488L15.9468 23.891Z" fill="white"/>
<path d="M15.9468 18.7436L20.4474 16.0833L15.9468 14.0376V18.7436Z" fill="white"/>
<path d="M11.4462 16.0833L15.9468 18.7436V14.0376L11.4462 16.0833Z" fill="white"/>
</g>
</svg>
