<svg width="32" height="32" viewBox="0 0 32 32" fill="none" xmlns="http://www.w3.org/2000/svg">
<circle cx="16" cy="16" r="16" fill="#1968FF"/>
<path d="M14.5668 6.20116C15.0904 5.93295 15.8872 5.93295 16.4108 6.20116L21.754 8.93807C22.0694 9.09961 22.2426 9.34032 22.2736 9.58881H22.2787V23.346C22.2718 23.617 22.0969 23.8862 21.754 24.0619L16.4108 26.7988C15.8872 27.0671 15.0904 27.0671 14.5668 26.7988L9.22357 24.0619C8.88209 23.887 8.71821 23.6158 8.7101 23.346C8.70929 23.3194 8.70919 23.2972 8.70996 23.2789L8.70993 9.67717C8.70939 9.66228 8.70934 9.6474 8.70978 9.63258L8.7101 9.58881L8.71249 9.58879C8.73622 9.33758 8.90156 9.10302 9.22357 8.93807L14.5668 6.20116ZM21.4375 17.2639L16.4108 19.8387C15.8872 20.1069 15.0904 20.1069 14.5668 19.8387L9.55101 17.2696V23.3187L14.5668 25.8743C14.85 26.0212 15.144 26.1642 15.4314 26.1824L15.4888 26.1842C15.7883 26.1852 16.0791 26.0377 16.374 25.8981L21.4375 23.2967V17.2639ZM7.84103 23.0469C7.84103 23.5738 7.9042 23.9203 8.02961 24.1645C8.13357 24.3668 8.28954 24.5213 8.57434 24.7095L8.59059 24.7201C8.6531 24.761 8.72195 24.8038 8.80575 24.854L8.90459 24.9128L9.20808 25.0904L8.7728 25.7884L8.43311 25.5894L8.37601 25.5554C8.27779 25.4965 8.19639 25.4461 8.12046 25.3964C7.30878 24.8657 7.00606 24.2872 7.00009 23.0835L7 23.0469H7.84103ZM15.0681 13.5765C15.0293 13.5895 14.9928 13.6045 14.9596 13.6215L9.61635 16.3584C9.61075 16.3613 9.60539 16.3641 9.60031 16.3669L9.59578 16.3695L9.60416 16.3741L9.61635 16.3805L14.9596 19.1175C14.9928 19.1345 15.0293 19.1495 15.0681 19.1624V13.5765ZM15.9094 13.5765V19.1624C15.9483 19.1495 15.9848 19.1345 16.018 19.1175L21.3612 16.3805C21.3668 16.3777 21.3722 16.3748 21.3773 16.372L21.3818 16.3695L21.3734 16.3648L21.3612 16.3584L16.018 13.6215C15.9848 13.6045 15.9483 13.5895 15.9094 13.5765ZM21.4375 10.5647L16.6444 13.0199L21.4375 15.4751V10.5647ZM9.55101 10.5704V15.4693L14.3331 13.0199L9.55101 10.5704ZM16.018 6.92238C15.7402 6.78005 15.2374 6.78005 14.9596 6.92238L9.61635 9.65931C9.61075 9.66218 9.60539 9.66502 9.60031 9.66782L9.59578 9.67037L9.60416 9.67503L9.61635 9.68144L14.9596 12.4184C15.2374 12.5607 15.7402 12.5607 16.018 12.4184L21.3612 9.68144C21.3668 9.67857 21.3722 9.67573 21.3773 9.67291L21.3818 9.67037L21.3734 9.66571L21.3612 9.65931L16.018 6.92238ZM22.2272 7.22252L22.5669 7.42147L22.624 7.45547C22.7222 7.51426 22.8036 7.56478 22.8795 7.61442C23.6912 8.14511 23.9939 8.72371 23.9998 9.92734L24 9.964H23.159C23.159 9.43691 23.0958 9.09047 22.9704 8.8464C22.8664 8.64411 22.7105 8.48951 22.4257 8.3014L22.4094 8.29072C22.3469 8.24985 22.2781 8.20705 22.1942 8.15673L22.0954 8.09803L21.7919 7.92041L22.2272 7.22252Z" fill="white"/>
</svg>
