<svg width="16" height="16" viewBox="0 0 16 16" fill="none" xmlns="http://www.w3.org/2000/svg">
<path d="M4.39327 7.90568C4.47743 8.06168 4.63746 8.15893 4.81152 8.15893H7.52182V13.5105C7.52182 13.7807 7.73604 14 7.99999 14C8.26395 14 8.47817 13.7807 8.47817 13.5105V8.15893H11.1885C11.3632 8.15893 11.5232 8.06168 11.6067 7.90568C11.6915 7.74969 11.6858 7.5591 11.5933 7.40832L8.40485 2.22845C8.31686 2.08616 8.16449 2 7.99999 2C7.8355 2 7.68312 2.08616 7.59514 2.22845L4.40666 7.40832C4.35821 7.48795 4.33334 7.57868 4.33334 7.6694C4.33334 7.75034 4.35375 7.83193 4.39327 7.90568Z" fill="#0E7F42"/>
</svg>
