<svg width="120" height="32" viewBox="0 0 120 32" fill="none" xmlns="http://www.w3.org/2000/svg">
<path d="M38.6446 24.2245C37.1645 24.2245 35.8575 23.9762 34.7234 23.4794C33.5893 22.9636 32.6955 22.2376 32.042 21.3015C31.3885 20.3463 31.0521 19.1905 31.0329 17.8341H34.9252C34.9637 18.7702 35.3 19.563 35.9343 20.2126C36.5879 20.843 37.4817 21.1582 38.6157 21.1582C39.596 21.1582 40.3745 20.929 40.9511 20.4705C41.5278 19.9929 41.8161 19.3624 41.8161 18.5791C41.8161 17.7576 41.5566 17.1176 41.0376 16.6591C40.5379 16.2006 39.8651 15.8281 39.0194 15.5415C38.1736 15.255 37.2702 14.9493 36.3092 14.6245C34.7522 14.0896 33.5605 13.4018 32.734 12.5612C31.9267 11.7206 31.523 10.603 31.523 9.20839C31.5038 8.02392 31.7825 7.01138 32.3592 6.17078C32.955 5.31108 33.7623 4.65198 34.7811 4.19347C35.7998 3.71586 36.9723 3.47705 38.2986 3.47705C39.6441 3.47705 40.8262 3.71586 41.8449 4.19347C42.8829 4.67108 43.6902 5.33974 44.2668 6.19944C44.8627 7.05914 45.1798 8.08123 45.2183 9.26571H41.2683C41.249 8.55884 40.9703 7.93795 40.4321 7.40302C39.9132 6.84899 39.1828 6.57198 38.2409 6.57198C37.4336 6.55287 36.7513 6.75347 36.1938 7.17377C35.6556 7.57496 35.3865 8.1672 35.3865 8.95048C35.3865 9.61914 35.598 10.1541 36.0208 10.5553C36.4437 10.9373 37.0203 11.2621 37.7508 11.5296C38.4812 11.797 39.3173 12.0836 40.2591 12.3893C41.2587 12.7332 42.1717 13.1344 42.9982 13.5929C43.8247 14.0514 44.4878 14.6627 44.9876 15.4269C45.4874 16.172 45.7372 17.1368 45.7372 18.3212C45.7372 19.372 45.4681 20.3463 44.9299 21.2442C44.3917 22.1421 43.5941 22.8681 42.5369 23.4221C41.4797 23.9571 40.1823 24.2245 38.6446 24.2245ZM54.9159 24.2245C53.4551 24.2245 52.1673 23.9093 51.0524 23.2788C49.9376 22.6484 49.0534 21.7696 48.3999 20.6424C47.7655 19.5153 47.4483 18.2257 47.4483 16.7738C47.4483 15.3218 47.7655 14.0323 48.3999 12.9051C49.0534 11.7779 49.9376 10.8991 51.0524 10.2687C52.1673 9.63824 53.4551 9.32302 54.9159 9.32302C56.7419 9.32302 58.2796 9.80063 59.529 10.7559C60.7784 11.692 61.5761 12.9911 61.9221 14.6532H58.0298C57.8376 13.9654 57.4531 13.4305 56.8765 13.0484C56.3191 12.6472 55.6559 12.4466 54.8871 12.4466C53.8684 12.4466 53.0034 12.8287 52.2922 13.5929C51.581 14.357 51.2254 15.4173 51.2254 16.7738C51.2254 18.1302 51.581 19.1905 52.2922 19.9547C53.0034 20.7188 53.8684 21.1009 54.8871 21.1009C55.6559 21.1009 56.3191 20.9099 56.8765 20.5278C57.4531 20.1457 57.8376 19.6012 58.0298 18.8944H61.9221C61.5761 20.4991 60.7784 21.7887 59.529 22.763C58.2796 23.7374 56.7419 24.2245 54.9159 24.2245ZM71.0984 24.2245C69.7144 24.2245 68.465 23.9093 67.3502 23.2788C66.2546 22.6484 65.38 21.7791 64.7265 20.6711C64.0922 19.5439 63.775 18.2448 63.775 16.7738C63.775 15.3027 64.1018 14.0132 64.7553 12.9051C65.4089 11.7779 66.2834 10.8991 67.379 10.2687C68.4939 9.63824 69.7433 9.32302 71.1272 9.32302C72.4919 9.32302 73.7221 9.63824 74.8177 10.2687C75.9325 10.8991 76.8071 11.7779 77.4414 12.9051C78.0949 14.0132 78.4217 15.3027 78.4217 16.7738C78.4217 18.2448 78.0949 19.5439 77.4414 20.6711C76.8071 21.7791 75.9325 22.6484 74.8177 23.2788C73.7029 23.9093 72.4631 24.2245 71.0984 24.2245ZM71.0984 21.0436C72.0594 21.0436 72.8956 20.6902 73.6068 19.9833C74.318 19.2573 74.6735 18.1875 74.6735 16.7738C74.6735 15.36 74.318 14.2997 73.6068 13.5929C72.8956 12.8669 72.069 12.5039 71.1272 12.5039C70.1469 12.5039 69.3012 12.8669 68.59 13.5929C67.898 14.2997 67.552 15.36 67.552 16.7738C67.552 18.1875 67.898 19.2573 68.59 19.9833C69.3012 20.6902 70.1373 21.0436 71.0984 21.0436ZM80.7605 30.1851V9.6669H84.0473L84.451 11.7015C84.9123 11.0711 85.5178 10.5171 86.2674 10.0394C87.0362 9.56183 88.0261 9.32302 89.2371 9.32302C90.5826 9.32302 91.7839 9.6478 92.8411 10.2973C93.8983 10.9469 94.7344 11.8353 95.3495 12.9624C95.9646 14.0896 96.2721 15.3696 96.2721 16.8024C96.2721 18.2353 95.9646 19.5153 95.3495 20.6424C94.7344 21.7505 93.8983 22.6293 92.8411 23.2788C91.7839 23.9093 90.5826 24.2245 89.2371 24.2245C88.1607 24.2245 87.2188 24.0239 86.4116 23.6227C85.6043 23.2215 84.9507 22.6579 84.451 21.932V30.1851H80.7605ZM88.4586 21.015C89.6311 21.015 90.6018 20.6233 91.3707 19.84C92.1395 19.0568 92.5239 18.0442 92.5239 16.8024C92.5239 15.5606 92.1395 14.5385 91.3707 13.7362C90.6018 12.9338 89.6311 12.5326 88.4586 12.5326C87.2669 12.5326 86.2866 12.9338 85.5178 13.7362C84.7681 14.5194 84.3933 15.532 84.3933 16.7738C84.3933 18.0156 84.7681 19.0376 85.5178 19.84C86.2866 20.6233 87.2669 21.015 88.4586 21.015ZM105.556 24.2245C104.115 24.2245 102.837 23.9188 101.722 23.3075C100.607 22.6962 99.7324 21.8365 99.0981 20.7284C98.4638 19.6203 98.1467 18.3403 98.1467 16.8884C98.1467 15.4173 98.4542 14.1087 99.0693 12.9624C99.7036 11.8162 100.569 10.9278 101.664 10.2973C102.779 9.6478 104.086 9.32302 105.585 9.32302C106.988 9.32302 108.228 9.62869 109.305 10.24C110.381 10.8514 111.217 11.692 111.813 12.7618C112.428 13.8126 112.736 14.9875 112.736 16.2866C112.736 16.4968 112.726 16.7165 112.707 16.9457C112.707 17.175 112.697 17.4138 112.678 17.6621H101.808C101.885 18.7702 102.27 19.6394 102.962 20.2699C103.673 20.9003 104.528 21.2156 105.528 21.2156C106.277 21.2156 106.902 21.0532 107.402 20.7284C107.921 20.3845 108.305 19.9451 108.555 19.4102H112.303C112.034 20.3081 111.582 21.1296 110.948 21.8747C110.333 22.6006 109.564 23.1738 108.642 23.5941C107.738 24.0144 106.71 24.2245 105.556 24.2245ZM105.585 12.3033C104.682 12.3033 103.884 12.5612 103.192 13.077C102.5 13.5738 102.058 14.3379 101.866 15.3696H108.988C108.93 14.4335 108.584 13.6884 107.95 13.1344C107.315 12.5803 106.527 12.3033 105.585 12.3033ZM115.503 24.0812C114.83 24.0812 114.273 23.8711 113.831 23.4508C113.408 23.0305 113.197 22.5242 113.197 21.932C113.197 21.3206 113.408 20.8048 113.831 20.3845C114.273 19.9642 114.83 19.7541 115.503 19.7541C116.176 19.7541 116.724 19.9642 117.146 20.3845C117.589 20.8048 117.81 21.3206 117.81 21.932C117.81 22.5242 117.589 23.0305 117.146 23.4508C116.724 23.8711 116.176 24.0812 115.503 24.0812Z" fill="white"/>
<path d="M25.9521 20.0729L23.5012 20.1175L23.3839 10.214L25.8348 10.1694L25.9521 20.0729ZM12.2655 17.7776L12.2374 12.7718L6.05613 12.8527L6.08424 17.8585L12.2655 17.7776ZM1.03796 14.1592L1.08255 16.608L4.81294 16.5717L4.76836 14.1229L1.03796 14.1592Z" fill="white"/>
<path d="M13.72 18.7398L13.6196 11.8399L21.6354 11.7949L21.7359 18.6949L13.72 18.7398Z" fill="#2BA765" stroke="#2BA765" stroke-width="0.4"/>
</svg>
