<svg width="18" height="16" viewBox="0 0 18 16" fill="none" xmlns="http://www.w3.org/2000/svg">
<path fill-rule="evenodd" clip-rule="evenodd" d="M5.28832 0.731609C5.42681 0.831577 5.65014 1.06121 5.65014 1.06121C6.51716 1.87382 7.82305 3.89495 8.24242 4.92036C8.25119 4.92036 8.49989 5.53007 8.50964 5.82007V5.85868C8.50964 6.30309 8.26095 6.7188 7.86108 6.9316C7.69624 7.01933 7.29531 7.10093 7.10187 7.14029C7.0378 7.15333 6.99649 7.16173 6.99407 7.1642C6.42256 7.2513 5.54579 7.30871 4.5832 7.30871C3.57281 7.30871 2.65801 7.2513 2.09528 7.1444C2.08552 7.1444 1.57156 7.0385 1.39991 6.9702C1.15219 6.86429 0.942506 6.6703 0.808894 6.42879C0.713317 6.23578 0.666504 6.03189 0.666504 5.82007C0.675281 5.59737 0.818646 5.18167 0.884965 5.01736C1.30433 3.93355 2.67654 1.86392 3.51527 1.0711C3.6024 0.982681 3.70155 0.89005 3.77055 0.825594C3.80736 0.791204 3.83558 0.764834 3.84882 0.751404C4.0585 0.587101 4.31597 0.5 4.59295 0.5C4.83969 0.5 5.08741 0.577203 5.28832 0.731609ZM14.1904 6.46815C14.1904 6.90465 13.8422 7.25801 13.4121 7.25801C12.982 7.25801 12.6338 6.90465 12.6338 6.46815L12.4193 2.65246C12.4193 2.09619 12.864 1.64583 13.4121 1.64583C13.9602 1.64583 14.4039 2.09619 14.4039 2.65246L14.1904 6.46815ZM16.5998 9.02966C16.8475 9.13656 17.0572 9.32957 17.1908 9.57108C17.2864 9.76409 17.3332 9.96799 17.3332 10.1808C17.3244 10.4025 17.181 10.8192 17.1137 10.9835C16.6953 12.0664 15.3222 14.1361 14.4844 14.9299C14.3988 15.0162 14.3015 15.1069 14.2327 15.1711L14.2326 15.1712L14.2326 15.1712C14.1941 15.2071 14.1645 15.2347 14.1509 15.2486C13.9402 15.4129 13.6837 15.5 13.4077 15.5C13.159 15.5 12.9113 15.4228 12.7114 15.2674C12.5729 15.1684 12.3495 14.9388 12.3495 14.9388C11.4815 14.1271 10.1766 12.105 9.75726 11.0795C9.74751 11.0795 9.49979 10.4708 9.49003 10.1808V10.1422C9.49003 9.69679 9.73775 9.28107 10.1386 9.06826C10.3031 8.98144 10.7028 8.89963 10.8966 8.85994L10.8967 8.85994C10.9614 8.84669 11.0032 8.83814 11.0056 8.83566C11.5771 8.74856 12.4539 8.69115 13.4165 8.69115C14.4269 8.69115 15.3417 8.74856 15.9044 8.85546C15.9132 8.85546 16.4281 8.96136 16.5998 9.02966ZM4.58778 8.74211C4.15768 8.74211 3.80951 9.09546 3.80951 9.53195L3.59495 13.3476C3.59495 13.9038 4.03968 14.3542 4.58778 14.3542C5.13588 14.3542 5.57963 13.9038 5.57963 13.3476L5.36605 9.53195C5.36605 9.09546 5.01787 8.74211 4.58778 8.74211Z" fill="#EFF1F6"/>
</svg>
