<svg width="31" height="28" viewBox="0 0 31 28" fill="none" xmlns="http://www.w3.org/2000/svg">
<path d="M27.9646 0.848633L16.8205 9.09446L18.8929 4.23493L27.9646 0.848633Z" fill="#E17726" stroke="#E17726" stroke-width="0.25" stroke-linecap="round" stroke-linejoin="round"/>
<path d="M2.25937 0.848633L13.3042 9.17142L11.3312 4.23492L2.25937 0.848633Z" fill="#E27625" stroke="#E27625" stroke-width="0.25" stroke-linecap="round" stroke-linejoin="round"/>
<path d="M23.9521 19.9678L20.9869 24.4975L27.3361 26.2456L29.1549 20.0668L23.9521 19.9678Z" fill="#E27625" stroke="#E27625" stroke-width="0.25" stroke-linecap="round" stroke-linejoin="round"/>
<path d="M1.0799 20.0668L2.88763 26.2456L9.22577 24.4975L6.27163 19.9678L1.0799 20.0668Z" fill="#E27625" stroke="#E27625" stroke-width="0.25" stroke-linecap="round" stroke-linejoin="round"/>
<path d="M8.88398 12.3155L7.12036 14.9762L13.4033 15.2621L13.1939 8.50049L8.88398 12.3155Z" fill="#E27625" stroke="#E27625" stroke-width="0.25" stroke-linecap="round" stroke-linejoin="round"/>
<path d="M21.3397 12.3158L16.9637 8.42383L16.8204 15.2624L23.1033 14.9765L21.3397 12.3158Z" fill="#E27625" stroke="#E27625" stroke-width="0.25" stroke-linecap="round" stroke-linejoin="round"/>
<path d="M9.22583 24.4976L13.0287 22.6616L9.75495 20.1108L9.22583 24.4976Z" fill="#E27625" stroke="#E27625" stroke-width="0.25" stroke-linecap="round" stroke-linejoin="round"/>
<path d="M17.1953 22.6616L20.9871 24.4976L20.469 20.1108L17.1953 22.6616Z" fill="#E27625" stroke="#E27625" stroke-width="0.25" stroke-linecap="round" stroke-linejoin="round"/>
<path d="M20.9871 24.4977L17.1953 22.6616L17.5039 25.1243L17.4708 26.1688L20.9871 24.4977Z" fill="#D5BFB2" stroke="#D5BFB2" stroke-width="0.25" stroke-linecap="round" stroke-linejoin="round"/>
<path d="M9.22583 24.4977L12.7532 26.1688L12.7311 25.1243L13.0287 22.6616L9.22583 24.4977Z" fill="#D5BFB2" stroke="#D5BFB2" stroke-width="0.25" stroke-linecap="round" stroke-linejoin="round"/>
<path d="M12.8192 18.4836L9.66663 17.5601L11.8932 16.5376L12.8192 18.4836Z" fill="#233447" stroke="#233447" stroke-width="0.25" stroke-linecap="round" stroke-linejoin="round"/>
<path d="M17.4047 18.4836L18.3307 16.5376L20.5683 17.5601L17.4047 18.4836Z" fill="#233447" stroke="#233447" stroke-width="0.25" stroke-linecap="round" stroke-linejoin="round"/>
<path d="M9.22575 24.4975L9.77693 19.9678L6.27167 20.0668L9.22575 24.4975Z" fill="#CC6228" stroke="#CC6228" stroke-width="0.25" stroke-linecap="round" stroke-linejoin="round"/>
<path d="M20.4469 19.9678L20.987 24.4975L23.9521 20.0668L20.4469 19.9678Z" fill="#CC6228" stroke="#CC6228" stroke-width="0.25" stroke-linecap="round" stroke-linejoin="round"/>
<path d="M23.1033 14.9766L16.8204 15.2624L17.4046 18.4839L18.3305 16.5378L20.5681 17.5603L23.1033 14.9766Z" fill="#CC6228" stroke="#CC6228" stroke-width="0.25" stroke-linecap="round" stroke-linejoin="round"/>
<path d="M9.66662 17.5603L11.8932 16.5378L12.8192 18.4839L13.4033 15.2624L7.12036 14.9766L9.66662 17.5603Z" fill="#CC6228" stroke="#CC6228" stroke-width="0.25" stroke-linecap="round" stroke-linejoin="round"/>
<path d="M7.12054 14.9766L9.75501 20.111L9.66677 17.5603L7.12054 14.9766Z" fill="#E27525" stroke="#E27525" stroke-width="0.25" stroke-linecap="round" stroke-linejoin="round"/>
<path d="M20.5683 17.5603L20.4691 20.111L23.1036 14.9766L20.5683 17.5603Z" fill="#E27525" stroke="#E27525" stroke-width="0.25" stroke-linecap="round" stroke-linejoin="round"/>
<path d="M13.4037 15.2622L12.8194 18.4837L13.5579 22.2877L13.7233 17.2742L13.4037 15.2622Z" fill="#E27525" stroke="#E27525" stroke-width="0.25" stroke-linecap="round" stroke-linejoin="round"/>
<path d="M16.8205 15.2622L16.5118 17.2633L16.6662 22.2877L17.4047 18.4837L16.8205 15.2622Z" fill="#E27525" stroke="#E27525" stroke-width="0.25" stroke-linecap="round" stroke-linejoin="round"/>
<path d="M17.4047 18.4836L16.6662 22.2876L17.1953 22.6615L20.4691 20.1108L20.5683 17.5601L17.4047 18.4836Z" fill="#F5841F" stroke="#F5841F" stroke-width="0.25" stroke-linecap="round" stroke-linejoin="round"/>
<path d="M9.66663 17.5601L9.75487 20.1108L13.0286 22.6615L13.5577 22.2876L12.8192 18.4836L9.66663 17.5601Z" fill="#F5841F" stroke="#F5841F" stroke-width="0.25" stroke-linecap="round" stroke-linejoin="round"/>
<path d="M17.4709 26.1687L17.5039 25.1242L17.2174 24.8823H13.0067L12.7311 25.1242L12.7532 26.1687L9.22583 24.4976L10.4604 25.509L12.9626 27.2352H17.2504L19.7636 25.509L20.9871 24.4976L17.4709 26.1687Z" fill="#C0AC9D" stroke="#C0AC9D" stroke-width="0.25" stroke-linecap="round" stroke-linejoin="round"/>
<path d="M17.1952 22.6614L16.6661 22.2876H13.5577L13.0287 22.6614L12.731 25.1242L13.0066 24.8823H17.2173L17.5039 25.1242L17.1952 22.6614Z" fill="#161616" stroke="#161616" stroke-width="0.25" stroke-linecap="round" stroke-linejoin="round"/>
<path d="M28.4385 9.63317L29.3755 5.08149L27.9645 0.848633L17.1953 8.81964L21.3398 12.3158L27.1929 14.02L28.4826 12.5138L27.9205 12.1069L28.8133 11.2934L28.1299 10.7656L29.0228 10.084L28.4385 9.63317Z" fill="#763E1A" stroke="#763E1A" stroke-width="0.25" stroke-linecap="round" stroke-linejoin="round"/>
<path d="M0.84848 5.08149L1.79644 9.63317L1.19019 10.084L2.09406 10.7656L1.41064 11.2934L2.30349 12.1069L1.74132 12.5138L3.031 14.02L8.88414 12.3158L13.0287 8.81964L2.2594 0.848633L0.84848 5.08149Z" fill="#763E1A" stroke="#763E1A" stroke-width="0.25" stroke-linecap="round" stroke-linejoin="round"/>
<path d="M27.193 14.0195L21.3399 12.3154L23.1036 14.9761L20.4691 20.1105L23.9523 20.0665H29.1551L27.193 14.0195Z" fill="#F5841F" stroke="#F5841F" stroke-width="0.25" stroke-linecap="round" stroke-linejoin="round"/>
<path d="M8.884 12.3154L3.03093 14.0195L1.0799 20.0665H6.27163L9.7548 20.1105L7.12039 14.9761L8.884 12.3154Z" fill="#F5841F" stroke="#F5841F" stroke-width="0.25" stroke-linecap="round" stroke-linejoin="round"/>
<path d="M16.8204 15.2623L17.1952 8.81951L18.8927 4.23486H11.3311L13.0286 8.81951L13.4033 15.2623L13.5466 17.2853L13.5577 22.2878H16.6661L16.6771 17.2853L16.8204 15.2623Z" fill="#F5841F" stroke="#F5841F" stroke-width="0.25" stroke-linecap="round" stroke-linejoin="round"/>
</svg>
