<svg width="163" height="44" viewBox="0 0 163 44" fill="none" xmlns="http://www.w3.org/2000/svg">
<path d="M52.8567 33.3086C50.8324 33.3086 49.0446 32.9672 47.4935 32.2842C45.9424 31.5749 44.7199 30.5767 43.826 29.2895C42.9321 27.9761 42.472 26.3869 42.4457 24.5218H47.7695C47.8221 25.8089 48.2822 26.8991 49.1498 27.7922C50.0436 28.6591 51.2661 29.0925 52.8173 29.0925C54.1581 29.0925 55.2228 28.7773 56.0115 28.1469C56.8003 27.4901 57.1946 26.6233 57.1946 25.5463C57.1946 24.4167 56.8397 23.5367 56.1299 22.9063C55.4463 22.2758 54.5261 21.7636 53.3694 21.3695C52.2126 20.9755 50.9769 20.5552 49.6624 20.1086C47.5329 19.3731 45.9029 18.4274 44.7724 17.2716C43.6682 16.1158 43.1161 14.5791 43.1161 12.6615C43.0899 11.0328 43.4711 9.64059 44.2598 8.48476C45.0748 7.30267 46.179 6.39641 47.5724 5.76596C48.9657 5.10924 50.5694 4.78088 52.3835 4.78088C54.2238 4.78088 55.8407 5.10924 57.234 5.76596C58.6537 6.42267 59.7579 7.34208 60.5466 8.52417C61.3616 9.70626 61.7954 11.1116 61.848 12.7403H56.4453C56.419 11.7683 56.0378 10.9146 55.3017 10.1791C54.5919 9.4173 53.5928 9.03641 52.3046 9.03641C51.2004 9.01014 50.2671 9.28596 49.5047 9.86387C48.7686 10.4155 48.4005 11.2298 48.4005 12.3069C48.4005 13.2263 48.6897 13.9618 49.2681 14.5134C49.8465 15.0388 50.6352 15.4854 51.6342 15.8531C52.6332 16.2209 53.7769 16.6149 55.0651 17.0352C56.4322 17.508 57.681 18.0597 58.8115 18.6901C59.942 19.3206 60.849 20.1612 61.5325 21.2119C62.2161 22.2364 62.5578 23.563 62.5578 25.1916C62.5578 26.6364 62.1898 27.9761 61.4536 29.2107C60.7175 30.4454 59.6265 31.4436 58.1805 32.2054C56.7345 32.9409 54.9599 33.3086 52.8567 33.3086ZM75.1121 33.3086C73.1141 33.3086 71.3526 32.8752 69.8278 32.0083C68.3029 31.1415 67.0936 29.9331 66.1997 28.3833C65.332 26.8334 64.8982 25.0603 64.8982 23.0639C64.8982 21.0674 65.332 19.2943 66.1997 17.7445C67.0936 16.1946 68.3029 14.9863 69.8278 14.1194C71.3526 13.2525 73.1141 12.8191 75.1121 12.8191C77.6097 12.8191 79.7129 13.4758 81.4218 14.7892C83.1307 16.0764 84.2217 17.8627 84.6949 20.148H79.3712C79.1083 19.2024 78.5824 18.4669 77.7937 17.9415C77.0313 17.3898 76.1243 17.114 75.0727 17.114C73.6793 17.114 72.4962 17.6394 71.5235 18.6901C70.5508 19.7409 70.0644 21.1988 70.0644 23.0639C70.0644 24.9289 70.5508 26.3869 71.5235 27.4376C72.4962 28.4883 73.6793 29.0137 75.0727 29.0137C76.1243 29.0137 77.0313 28.751 77.7937 28.2257C78.5824 27.7003 79.1083 26.9516 79.3712 25.9797H84.6949C84.2217 28.1863 83.1307 29.9594 81.4218 31.2991C79.7129 32.6388 77.6097 33.3086 75.1121 33.3086ZM97.2459 33.3086C95.353 33.3086 93.6442 32.8752 92.1193 32.0083C90.6208 31.1415 89.4246 29.9463 88.5307 28.4227C87.6631 26.8728 87.2293 25.0866 87.2293 23.0639C87.2293 21.0412 87.6763 19.268 88.5701 17.7445C89.464 16.1946 90.6602 14.9863 92.1588 14.1194C93.6836 13.2525 95.3925 12.8191 97.2854 12.8191C99.152 12.8191 100.835 13.2525 102.333 14.1194C103.858 14.9863 105.054 16.1946 105.922 17.7445C106.816 19.268 107.263 21.0412 107.263 23.0639C107.263 25.0866 106.816 26.8728 105.922 28.4227C105.054 29.9463 103.858 31.1415 102.333 32.0083C100.808 32.8752 99.1126 33.3086 97.2459 33.3086ZM97.2459 28.9349C98.5605 28.9349 99.7041 28.4489 100.677 27.477C101.65 26.4788 102.136 25.0077 102.136 23.0639C102.136 21.12 101.65 19.6621 100.677 18.6901C99.7041 17.6919 98.5736 17.1928 97.2854 17.1928C95.9446 17.1928 94.7878 17.6919 93.8151 18.6901C92.8686 19.6621 92.3954 21.12 92.3954 23.0639C92.3954 25.0077 92.8686 26.4788 93.8151 27.477C94.7878 28.4489 95.9314 28.9349 97.2459 28.9349ZM110.461 41.5045V13.2919H114.957L115.509 16.0895C116.14 15.2227 116.968 14.4609 117.994 13.8042C119.045 13.1475 120.399 12.8191 122.055 12.8191C123.896 12.8191 125.539 13.2657 126.985 14.1588C128.431 15.0519 129.574 16.2734 130.416 17.8233C131.257 19.3731 131.678 21.1331 131.678 23.1033C131.678 25.0734 131.257 26.8334 130.416 28.3833C129.574 29.9069 128.431 31.1152 126.985 32.0083C125.539 32.8752 123.896 33.3086 122.055 33.3086C120.583 33.3086 119.295 33.0328 118.191 32.4812C117.087 31.9295 116.193 31.1546 115.509 30.1564V41.5045H110.461ZM120.991 28.8955C122.594 28.8955 123.922 28.357 124.974 27.28C126.025 26.203 126.551 24.8107 126.551 23.1033C126.551 21.3958 126.025 19.9904 124.974 18.8872C123.922 17.7839 122.594 17.2322 120.991 17.2322C119.361 17.2322 118.02 17.7839 116.968 18.8872C115.943 19.9642 115.43 21.3564 115.43 23.0639C115.43 24.7713 115.943 26.1767 116.968 27.28C118.02 28.357 119.361 28.8955 120.991 28.8955ZM144.377 33.3086C142.405 33.3086 140.657 32.8883 139.132 32.0478C137.607 31.2072 136.411 30.0251 135.543 28.5015C134.675 26.9779 134.242 25.2179 134.242 23.2215C134.242 21.1988 134.662 19.3994 135.504 17.8233C136.371 16.2472 137.554 15.0257 139.053 14.1588C140.578 13.2657 142.365 12.8191 144.416 12.8191C146.335 12.8191 148.031 13.2394 149.503 14.08C150.975 14.9206 152.119 16.0764 152.934 17.5475C153.775 18.9922 154.196 20.6077 154.196 22.394C154.196 22.683 154.183 22.9851 154.157 23.3003C154.157 23.6155 154.143 23.9439 154.117 24.2854H139.25C139.355 25.8089 139.881 27.0042 140.827 27.871C141.8 28.7379 142.97 29.1713 144.337 29.1713C145.363 29.1713 146.217 28.948 146.9 28.5015C147.61 28.0286 148.136 27.4245 148.478 26.6889H153.605C153.236 27.9236 152.619 29.0531 151.751 30.0776C150.91 31.0758 149.858 31.8639 148.596 32.4418C147.361 33.0197 145.954 33.3086 144.377 33.3086ZM144.416 16.917C143.18 16.917 142.089 17.2716 141.143 17.9809C140.196 18.6639 139.592 19.7146 139.329 21.1331H149.069C148.991 19.846 148.517 18.8215 147.65 18.0597C146.782 17.2979 145.704 16.917 144.416 16.917ZM157.981 33.1116C157.061 33.1116 156.299 32.8227 155.694 32.2448C155.116 31.6669 154.826 30.9707 154.826 30.1564C154.826 29.3158 155.116 28.6066 155.694 28.0286C156.299 27.4507 157.061 27.1618 157.981 27.1618C158.901 27.1618 159.651 27.4507 160.229 28.0286C160.834 28.6066 161.136 29.3158 161.136 30.1564C161.136 30.9707 160.834 31.6669 160.229 32.2448C159.651 32.8227 158.901 33.1116 157.981 33.1116Z" fill="white"/>
<path d="M35.4963 27.6003L32.1442 27.6616L31.9838 14.0443L35.3359 13.983L35.4963 27.6003ZM16.7763 24.4442L16.7379 17.5612L8.28336 17.6724L8.32181 24.5554L16.7763 24.4442ZM1.41968 19.4689L1.48066 22.8361L6.58297 22.7862L6.52199 19.419L1.41968 19.4689Z" fill="white"/>
<path d="M18.7658 25.7673L18.6284 16.2798L29.5923 16.218L29.7296 25.7055L18.7658 25.7673Z" fill="#2BA765" stroke="#2BA765" stroke-width="0.4"/>
</svg>
