<svg width="20" height="20" viewBox="0 0 20 20" fill="none" xmlns="http://www.w3.org/2000/svg">
<path d="M15.9971 17.2531C15.6969 17.1051 15.4444 16.8758 15.2681 16.5912C15.0919 16.3067 14.9991 15.9784 15.0002 15.6437C14.998 14.6724 14.7206 13.7215 14.2002 12.9013C13.6797 12.0811 12.9375 11.4251 12.0596 11.0094L10.594 10.3125H12.1877C12.2706 10.3125 12.3501 10.2796 12.4087 10.221C12.4673 10.1624 12.5002 10.0829 12.5002 9.99999C12.5002 9.91711 12.4673 9.83763 12.4087 9.77902C12.3501 9.72042 12.2706 9.68749 12.1877 9.68749H11.5627L12.0627 9.31249C12.129 9.26277 12.1729 9.18874 12.1846 9.10669C12.1963 9.02464 12.175 8.9413 12.1252 8.87499C12.0755 8.80869 12.0015 8.76486 11.9194 8.75314C11.8374 8.74141 11.754 8.76277 11.6877 8.8125L10.7502 9.50624L10.5127 9.68437H10.469L11.0596 8.89687L10.9752 8.83437C10.894 8.76875 10.8658 8.74687 10.7815 8.74687C10.7443 8.7465 10.7075 8.75412 10.6735 8.76921C10.6396 8.78431 10.6092 8.80653 10.5846 8.83437C10.4239 8.97931 10.2151 9.05952 9.99866 9.05952C9.78222 9.05952 9.57347 8.97931 9.41272 8.83437C9.33147 8.76875 9.30335 8.74687 9.21897 8.74687C9.1346 8.74687 9.10647 8.76875 9.0221 8.83437L8.94085 8.89687L9.53147 9.68749H9.34397C9.32431 9.68423 9.30425 9.68423 9.2846 9.68749C9.26387 9.68455 9.24283 9.68455 9.2221 9.68749C9.16731 9.71766 9.12284 9.76356 9.09442 9.81927C9.06601 9.87498 9.05497 9.93794 9.06272 9.99999C9.05796 10.0258 9.05796 10.0523 9.06272 10.0781C9.07215 10.1175 9.08913 10.1546 9.11272 10.1875H9.12835C9.13933 10.2043 9.15307 10.2191 9.16897 10.2312C9.20671 10.2557 9.24775 10.2746 9.29085 10.2875C9.3175 10.3002 9.34597 10.3086 9.37522 10.3125H9.42522L7.95022 11.0031C7.0698 11.4183 6.32524 12.0747 5.80305 12.8961C5.28086 13.7176 5.00247 14.6704 5.00022 15.6437C5.00139 15.9784 4.90857 16.3067 4.73233 16.5912C4.55609 16.8758 4.30351 17.1051 4.00335 17.2531C3.90982 17.2989 3.83463 17.3752 3.79013 17.4694C3.74563 17.5635 3.73446 17.67 3.75843 17.7714C3.78241 17.8727 3.84012 17.9629 3.92209 18.0272C4.00407 18.0914 4.10545 18.1259 4.2096 18.125H15.7908C15.895 18.1259 15.9964 18.0914 16.0784 18.0272C16.1603 17.9629 16.218 17.8727 16.242 17.7714C16.266 17.67 16.2548 17.5635 16.2103 17.4694C16.1658 17.3752 16.0906 17.2989 15.9971 17.2531ZM9.76585 14.375H10.2346C10.4933 14.3657 10.7452 14.459 10.9355 14.6346C11.1257 14.8102 11.2388 15.0539 11.2502 15.3125C11.2417 15.5584 11.1401 15.7919 10.9662 15.9659C10.7922 16.1399 10.5586 16.2414 10.3127 16.25V16.5625C10.3127 16.6454 10.2798 16.7249 10.2212 16.7835C10.1626 16.8421 10.0831 16.875 10.0002 16.875C9.91734 16.875 9.83786 16.8421 9.77925 16.7835C9.72065 16.7249 9.68772 16.6454 9.68772 16.5625V16.25H9.06272C8.97984 16.25 8.90036 16.2171 8.84175 16.1585C8.78315 16.0999 8.75022 16.0204 8.75022 15.9375C8.75022 15.8546 8.78315 15.7751 8.84175 15.7165C8.90036 15.6579 8.97984 15.625 9.06272 15.625H10.2346C10.3175 15.625 10.397 15.5921 10.4556 15.5335C10.5142 15.4749 10.5471 15.3954 10.5471 15.3125C10.5471 15.2296 10.5142 15.1501 10.4556 15.0915C10.397 15.0329 10.3175 15 10.2346 15H9.76585C9.50712 15.0093 9.2552 14.916 9.06496 14.7404C8.87473 14.5648 8.7616 14.3211 8.75022 14.0625C8.75878 13.8166 8.86029 13.5831 9.03429 13.4091C9.20829 13.2351 9.4418 13.1335 9.68772 13.125V12.8125C9.68772 12.7296 9.72065 12.6501 9.77925 12.5915C9.83786 12.5329 9.91734 12.5 10.0002 12.5C10.0831 12.5 10.1626 12.5329 10.2212 12.5915C10.2798 12.6501 10.3127 12.7296 10.3127 12.8125V13.125H10.9377C11.0206 13.125 11.1001 13.1579 11.1587 13.2165C11.2173 13.2751 11.2502 13.3546 11.2502 13.4375C11.2502 13.5204 11.2173 13.5999 11.1587 13.6585C11.1001 13.7171 11.0206 13.75 10.9377 13.75H9.76585C9.68297 13.75 9.60348 13.7829 9.54488 13.8415C9.48627 13.9001 9.45335 13.9796 9.45335 14.0625C9.45335 14.1454 9.48627 14.2249 9.54488 14.2835C9.60348 14.3421 9.68297 14.375 9.76585 14.375Z" fill="#5D77A2"/>
<path d="M8.125 5.9375H9.6875V8.26562C9.73125 8.29375 9.76875 8.325 9.80313 8.35C9.82775 8.37784 9.85808 8.40006 9.89205 8.41516C9.92601 8.43025 9.96283 8.43787 10 8.4375C10.0844 8.4375 10.1125 8.41562 10.1937 8.35C10.2311 8.31788 10.2708 8.28864 10.3125 8.2625V5H11.875C12.3264 5 12.7734 4.91109 13.1905 4.73834C13.6075 4.56559 13.9865 4.31238 14.3057 3.99318C14.6249 3.67398 14.8781 3.29503 15.0508 2.87797C15.2236 2.46092 15.3125 2.01392 15.3125 1.5625C15.3125 1.47962 15.2796 1.40013 15.221 1.34153C15.1624 1.28292 15.0829 1.25 15 1.25H13.125C12.3647 1.2502 11.626 1.50244 11.0244 1.96723C10.4227 2.43203 9.99214 3.08317 9.8 3.81875C9.49199 3.32001 9.06155 2.90832 8.5496 2.62281C8.03765 2.3373 7.46118 2.18745 6.875 2.1875H5C4.91712 2.1875 4.83763 2.22042 4.77903 2.27903C4.72042 2.33763 4.6875 2.41712 4.6875 2.5C4.6875 3.41168 5.04966 4.28602 5.69432 4.93068C6.33898 5.57534 7.21332 5.9375 8.125 5.9375Z" fill="#5D77A2"/>
</svg>
