<svg width="64" height="64" viewBox="0 0 64 64" fill="none" xmlns="http://www.w3.org/2000/svg">
<path d="M0 32C0 5.648 5.648 0 32 0C58.352 0 64 5.648 64 32C64 58.352 58.352 64 32 64C5.648 64 0 58.352 0 32Z" fill="#313036" fill-opacity="0.3"/>
<path d="M0 32C0 5.648 5.648 0 32 0C58.352 0 64 5.648 64 32C64 58.352 58.352 64 32 64C5.648 64 0 58.352 0 32Z" fill="url(#paint0_linear_1742_3715)"/>
<path d="M1 32C1 25.4348 1.35308 20.2274 2.27043 16.0997C3.18526 11.9833 4.6479 9.00231 6.82511 6.82511C9.00231 4.6479 11.9833 3.18526 16.0997 2.27043C20.2274 1.35308 25.4348 1 32 1C38.5652 1 43.7726 1.35308 47.9003 2.27043C52.0167 3.18526 54.9977 4.6479 57.1749 6.82511C59.3521 9.00231 60.8147 11.9833 61.7296 16.0997C62.6469 20.2274 63 25.4348 63 32C63 38.5652 62.6469 43.7726 61.7296 47.9003C60.8147 52.0167 59.3521 54.9977 57.1749 57.1749C54.9977 59.3521 52.0167 60.8147 47.9003 61.7296C43.7726 62.6469 38.5652 63 32 63C25.4348 63 20.2274 62.6469 16.0997 61.7296C11.9833 60.8147 9.00231 59.3521 6.82511 57.1749C4.6479 54.9977 3.18526 52.0167 2.27043 47.9003C1.35308 43.7726 1 38.5652 1 32Z" stroke="#9EAEC7" stroke-opacity="0.1" stroke-width="2"/>
<rect opacity="0.4" x="13" y="27" width="25" height="18" rx="4" fill="url(#paint1_linear_1742_3715)"/>
<rect opacity="0.6" x="26" y="18" width="25" height="18" rx="4" fill="url(#paint2_linear_1742_3715)"/>
<defs>
<linearGradient id="paint0_linear_1742_3715" x1="32" y1="0" x2="32" y2="64" gradientUnits="userSpaceOnUse">
<stop stop-color="#797583" stop-opacity="0.2"/>
<stop offset="1" stop-color="#363567" stop-opacity="0.2"/>
</linearGradient>
<linearGradient id="paint1_linear_1742_3715" x1="27.7887" y1="22.6901" x2="27.5149" y2="48.1717" gradientUnits="userSpaceOnUse">
<stop stop-color="#6FF7E8"/>
<stop offset="0.520833" stop-color="#58EEFF"/>
<stop offset="0.859375" stop-color="#32C4C0"/>
</linearGradient>
<linearGradient id="paint2_linear_1742_3715" x1="40.7887" y1="13.6901" x2="40.5149" y2="39.1717" gradientUnits="userSpaceOnUse">
<stop stop-color="#6FF7E8"/>
<stop offset="0.520833" stop-color="#58EEFF"/>
<stop offset="0.859375" stop-color="#32C4C0"/>
</linearGradient>
</defs>
</svg>
