<svg width="32" height="32" viewBox="0 0 32 32" fill="none" xmlns="http://www.w3.org/2000/svg">
<path d="M16 32C24.8366 32 32 24.8366 32 16C32 7.16344 24.8366 0 16 0C7.16344 0 0 7.16344 0 16C0 24.8366 7.16344 32 16 32Z" fill="#2775CA"/>
<path d="M13.0667 27.0666C13.0667 27.4666 12.8 27.6 12.4 27.6C7.46667 26 4 21.4666 4 16.1333C4 10.8 7.46667 6.26664 12.4 4.66664C12.8 4.53331 13.0667 4.79998 13.0667 5.19998V6.13331C13.0667 6.39998 12.9333 6.66664 12.6667 6.79998C8.8 8.26664 6.13333 11.8666 6.13333 16.1333C6.13333 20.4 8.93333 24.1333 12.6667 25.4666C12.9333 25.6 13.0667 25.8666 13.0667 26.1333V27.0666Z" fill="white"/>
<path d="M17.0667 23.7333C17.0667 24 16.8 24.2666 16.5333 24.2666H15.4667C15.2 24.2666 14.9333 24 14.9333 23.7333V22.1333C12.8 21.8666 11.7333 20.6666 11.3333 18.9333C11.3333 18.6666 11.4667 18.4 11.7333 18.4H12.9333C13.2 18.4 13.3333 18.5333 13.4667 18.8C13.7333 19.7333 14.2667 20.5333 16 20.5333C17.3333 20.5333 18.2667 19.8666 18.2667 18.8C18.2667 17.7333 17.7333 17.3333 15.8667 17.0666C13.0667 16.6666 11.7333 15.8666 11.7333 13.6C11.7333 11.8666 13.0667 10.5333 14.9333 10.2666V8.66663C14.9333 8.39997 15.2 8.1333 15.4667 8.1333H16.5333C16.8 8.1333 17.0667 8.39997 17.0667 8.66663V10.2666C18.6667 10.5333 19.7333 11.4666 20 12.9333C20 13.2 19.8667 13.4666 19.6 13.4666H18.5333C18.2667 13.4666 18.1333 13.3333 18 13.0666C17.7333 12.1333 17.0667 11.7333 15.8667 11.7333C14.5333 11.7333 13.8667 12.4 13.8667 13.3333C13.8667 14.2666 14.2667 14.8 16.2667 15.0666C19.0667 15.4666 20.4 16.2666 20.4 18.5333C20.4 20.2666 19.0667 21.7333 17.0667 22.1333V23.7333Z" fill="white"/>
<path d="M19.6 27.6C19.2 27.7333 18.9333 27.4666 18.9333 27.0666V26.1333C18.9333 25.8666 19.0667 25.6 19.3333 25.4666C23.2 24 25.8667 20.4 25.8667 16.1333C25.8667 11.8666 23.0667 8.13329 19.3333 6.79996C19.0667 6.66663 18.9333 6.39996 18.9333 6.13329V5.19996C18.9333 4.79996 19.2 4.66663 19.6 4.66663C24.4 6.26663 28 10.8 28 16.1333C28 21.4666 24.5333 26 19.6 27.6Z" fill="white"/>
</svg>
