<svg width="64" height="64" viewBox="0 0 64 64" fill="none" xmlns="http://www.w3.org/2000/svg">
<path d="M0 32C0 5.648 5.648 0 32 0C58.352 0 64 5.648 64 32C64 58.352 58.352 64 32 64C5.648 64 0 58.352 0 32Z" fill="#313036" fill-opacity="0.3"/>
<path d="M0 32C0 5.648 5.648 0 32 0C58.352 0 64 5.648 64 32C64 58.352 58.352 64 32 64C5.648 64 0 58.352 0 32Z" fill="url(#paint0_linear_1742_3697)"/>
<path d="M1 32C1 25.4348 1.35308 20.2274 2.27043 16.0997C3.18526 11.9833 4.6479 9.00231 6.82511 6.82511C9.00231 4.6479 11.9833 3.18526 16.0997 2.27043C20.2274 1.35308 25.4348 1 32 1C38.5652 1 43.7726 1.35308 47.9003 2.27043C52.0167 3.18526 54.9977 4.6479 57.1749 6.82511C59.3521 9.00231 60.8147 11.9833 61.7296 16.0997C62.6469 20.2274 63 25.4348 63 32C63 38.5652 62.6469 43.7726 61.7296 47.9003C60.8147 52.0167 59.3521 54.9977 57.1749 57.1749C54.9977 59.3521 52.0167 60.8147 47.9003 61.7296C43.7726 62.6469 38.5652 63 32 63C25.4348 63 20.2274 62.6469 16.0997 61.7296C11.9833 60.8147 9.00231 59.3521 6.82511 57.1749C4.6479 54.9977 3.18526 52.0167 2.27043 47.9003C1.35308 43.7726 1 38.5652 1 32Z" stroke="#9EAEC7" stroke-opacity="0.1" stroke-width="2"/>
<path d="M21.8625 23.1625C21.5688 23.2312 21.7562 23.2188 21.5125 23.25C20.4688 23.475 21.2438 23.675 21.8625 23.1625ZM40.2188 23.5813C40.2938 23.5312 40.5562 23.275 39.7375 23.025C39.7875 23.2812 39.5688 23.2562 39.5688 23.4C40.175 23.95 40.425 24.9062 41.2 25.1062C41.35 24.4187 40.5125 24.0813 40.2188 23.5813ZM21.3063 22.9625C21.4 23.5188 21.8187 22.375 21.825 21.9688C21.6625 22.0625 21.5 22.1562 21.3313 22.2312C21.725 22.4312 21.3813 22.6438 20.9563 22.9625C20.0938 24.0375 21.7625 22.125 21.3063 22.9625ZM32 16C23.1625 16 16 23.1625 16 32C16 40.8312 23.1625 48 32 48C40.8375 48 48 40.8312 48 32C48 23.1625 40.8375 16 32 16ZM32.425 21.3625L32.5 21.3875C32.2 21.775 34.0625 22.9062 32.725 23C31.475 23.3562 33.25 22.675 32.2812 22.7937C32.7938 22.0812 31.875 22.0688 32.425 21.3625ZM24.8375 22.3875C24.3875 22.0125 22.975 22.9 23.4688 22.6875C24.6938 22.2063 23.55 22.7375 23.8375 23.3125C23.575 23.8562 23.75 22.775 23.1 23.4187C22.6312 23.525 21.4812 24.5875 21.625 24.2625C21.5875 24.7688 20.2562 25.3687 20.075 26.2125C19.6375 27.3812 19.9688 26.1687 19.8875 25.7125C19.2625 24.9187 18.125 27.0562 18.4625 27.9C19.0312 26.9 18.9875 27.7937 18.575 28.2375C18.9938 29.0063 18.1937 30.0062 18.9875 30.575C19.3375 30.6562 20.0375 29.4 19.7313 30.7063C19.9438 29.575 20.3188 30.975 20.925 30.6625C20.9625 31.2563 21.3312 30.9812 21.4125 31.7C22.425 31.625 23.35 33.3375 22.1438 33.6625C22.325 33.6125 22.6813 33.9312 23.0938 33.6875C23.7937 34.2437 25.6375 34.3125 25.6875 35.6875C24.4187 36.2938 25.375 37.9562 24.275 38.55C23.0125 38.3625 23.8438 40.1063 23.3125 39.9062C23.525 41.1625 22.0375 39.7437 22.6125 40.4375C23.6688 41.0875 22.15 40.9562 22.625 41.4312C22.0938 41.3188 22.9562 42.4188 23.1 42.825C23.8625 44.0625 22.4437 42.55 22.025 42.1375C21.625 41.3375 20.6812 39.8062 20.4187 38.55C20.2687 36.725 18.8563 35.5 18.5312 33.7188C18.2062 32.725 19.425 31.1312 18.7687 30.575C18.2 30.1312 18.4313 28.6125 18.0938 27.8125C18.9375 24.1562 21.6187 21.075 24.8375 19.25C24.5062 19.4938 26.7313 18.6187 26.475 18.8312C26.4062 18.9875 27.775 18.2375 28.6 18.125C28.5125 18.1375 26.4562 18.875 27.025 18.775C26.1437 19.2063 26.9375 18.9625 27.375 18.7438C26.5 19.3875 25.825 19.2063 24.8313 19.775C23.8313 20.0375 24.0375 21.075 23.325 21.5938C23.7437 21.6687 24.7937 20.5125 25.4062 20.1062C26.8125 19.425 24.6938 21.3438 26.0312 20.5188C25.5813 20.9375 25.675 21.6062 25.4 21.7937C25.2625 21.7562 25.9437 22.1187 24.8375 22.3875ZM27.025 19.5125C26.8812 19.7062 26.6812 20.125 26.5625 19.8688C26.4 19.95 26.3375 20.3 26.0312 20.0188C26.2125 19.8875 26.4 19.575 26.0437 19.7687C26.2063 19.5938 27.6562 19.1 27.575 18.9125C27.8313 18.75 27.8062 18.6688 27.5125 18.7687C27.3625 18.7188 27.8687 18.2938 28.5437 18.2375C28.6375 18.2375 28.675 18.3 28.5063 18.2812C27.4875 18.5938 27.925 18.5062 28.6125 18.2812C28.35 18.4313 28.1687 18.475 28.125 18.5438C28.8125 18.2938 28.0875 18.725 28.2437 18.6937C28.05 18.7937 28.275 18.825 27.9 18.9688C27.9688 18.9125 27.2875 19.375 27.6938 19.2375C27.3 19.6125 27.125 19.6188 27.025 19.5125ZM27.625 20.4062C27.6375 19.8063 28.5 19.425 28.3938 19.3937C29.4563 18.8937 28.025 19.4125 28.8625 18.9625C29.175 18.9313 29.8375 17.9312 30.7563 17.8687C31.7688 17.5625 31.3 17.8875 32.05 17.6L31.9 17.725C31.7687 17.7437 31.9313 17.975 31.4563 18.325C31.4062 18.8688 30.55 18.6188 30.975 19.2C30.7 18.8063 30.2875 19.1875 30.8062 19.225C30.25 19.65 28.9562 19.725 28.3375 20.4313C27.9375 21.0062 27.5688 20.825 27.625 20.4062ZM32.0688 22.4062C31.6438 23.4313 31.2312 22.2562 31.9812 22.0687C32.1688 22.1687 32.2437 22.2 32.0688 22.4062ZM30.4688 20.3562C30.3438 19.8937 30.4438 20.1375 31.1875 19.9188C31.7 20.2875 30.7312 20.5312 30.4688 20.3562ZM42.1063 38.7C41.5188 37.6875 42.8188 36.75 43.2563 35.9C43.2 36.8937 43.075 37.875 42.1063 38.7ZM44.3188 27.1313C43.6812 27.1813 43.1063 27.3313 42.5312 26.9688C41.2062 25.5188 42.775 28.6062 43.2125 27.3438C44.7875 27.9438 43.1875 30.5312 42.1938 30.2625C41.6375 29.0625 40.95 27.7437 39.7375 27.1562C40.6687 28.1875 41.1313 29.4563 42.1313 30.3875C42.2 31.6875 43.5187 29.9125 43.4375 30.9187C43.5625 32.65 41.4813 33.6875 41.8438 35.425C42.6187 37.0062 40.35 37.2937 40.6063 38.7125C39.6938 39.7312 38.7188 41.1063 37.0812 40.8875C37.0812 40.025 36.6438 39.2938 36.5438 38.4062C35.6562 37.2812 37.4813 36.075 36.35 34.9C35.0438 34.6062 36.6187 32.8062 35.275 32.975C34.4688 32.1688 33.2875 32.95 32.1313 32.9562C30.6813 33.0938 29.1875 31.175 29.8313 29.8188C29.3188 28.4062 31.4563 27.9937 31.5125 26.75C32.5375 25.8938 33.9937 26 35.3813 25.8C35.2812 26.7937 36.3312 26.8 37.125 27.1313C37.5688 26.0563 38.95 27.3062 39.8937 26.625C40.2188 25.0375 38.975 25.9938 38.2625 25.4875C37.4 24.225 40.1063 24.8375 39.825 24.175C38.775 24.1687 39.3687 22.8812 38.625 23.6C39.2938 23.7188 38.5063 24.2438 38.525 23.6438C37.5125 23.35 38.4875 24.7937 37.975 24.9312C37.1938 24.6062 37.5625 25.3 37.6437 25.4062C37.3062 26.1375 36.8937 24.3313 35.9375 24.3813C34.9875 23.5125 35.5625 24.775 36.3875 24.9812C36.2125 25.0312 36.4875 25.75 36.2687 25.4438C35.5875 24.5063 34.2937 23.8812 33.525 25.0312C33.4438 26.1062 31.2562 26.4125 31.6062 25.1562C31.0938 23.8562 33.1938 25.1188 33 24.0813C31.65 23.1875 33.3688 23.475 33.825 22.6375C34.8625 22.6687 33.8688 21.7875 34.3563 21.5312C34.3063 22.4875 35.15 22.3063 35.8188 22.125C35.6562 21.575 36.2188 21.5938 35.875 21.1375C37.425 20.5187 34.6938 21.425 35.2437 20.0687C34.575 19.6062 34.9625 21.0875 35.2437 21.2438C35.2625 21.7 34.875 22.2625 34.3438 21.3063C33.5688 21.8125 33.65 20.7938 33.6 20.9C33.5125 20.5062 34.1875 20.4875 34.1938 19.8C34.1375 19.3625 34.15 19.1313 34.4625 19.1063C34.4875 19.1688 35.7437 19.1875 36.1875 19.7062C34.975 19.4625 36.0062 19.9062 36.55 20.1562C35.9688 19.7 36.7812 20.1562 36.3062 19.6375C36.4937 19.675 35.7875 18.925 36.5125 19.5812C36.1188 19.1125 37.2812 19.25 36.5938 18.9C37.6 19.1813 37.0063 18.925 36.4125 18.6688C34.775 17.6938 39.3062 19.9875 37.4562 18.9688C38.6375 19.225 34.9312 18.0562 36.6187 18.5687C35.975 18.2875 36.6 18.4437 37.1812 18.625C36.1375 18.3 34.575 17.6938 34.6375 17.6688C35 17.6938 35.3563 17.775 35.7 17.875C36.7688 18.1937 35.3937 17.8 35.6875 17.8062C39.3625 18.75 42.5813 21.2125 44.5375 24.4312C44.9937 24.9125 46.2375 28.0938 45.5875 26.6812C45.8813 27.8062 45.925 29.0188 46.0812 30.1687C45.7562 29.8062 45.3937 28.4688 45.0812 27.725C44.95 28.0125 44.8 27.3188 44.3188 27.1313Z" fill="url(#paint1_linear_1742_3697)"/>
<defs>
<linearGradient id="paint0_linear_1742_3697" x1="32" y1="0" x2="32" y2="64" gradientUnits="userSpaceOnUse">
<stop stop-color="#797583" stop-opacity="0.2"/>
<stop offset="1" stop-color="#363567" stop-opacity="0.2"/>
</linearGradient>
<linearGradient id="paint1_linear_1742_3697" x1="34.9296" y1="8.33803" x2="34.2535" y2="53.6338" gradientUnits="userSpaceOnUse">
<stop stop-color="#6FF7E8"/>
<stop offset="0.520833" stop-color="#58EEFF"/>
<stop offset="0.859375" stop-color="#32C4C0"/>
</linearGradient>
</defs>
</svg>
